<?xml version="1.0" encoding="UTF-8" standalone="no"?>
<!DOCTYPE svg PUBLIC "-//W3C//DTD SVG 1.1//EN" "http://www.w3.org/Graphics/SVG/1.1/DTD/svg11.dtd">
<svg width="100%" height="100%" viewBox="0 0 3070 3070" version="1.1" xmlns="http://www.w3.org/2000/svg" xmlns:xlink="http://www.w3.org/1999/xlink" xml:space="preserve" xmlns:serif="http://www.serif.com/" style="fill-rule:evenodd;clip-rule:evenodd;stroke-linejoin:round;stroke-miterlimit:2;">
    <g transform="matrix(1,0,0,1,-2193,-448)">
        <g id="lvYpbz.tif" transform="matrix(23.6053,0,0,23.3195,1039.91,545.231)">
            <g>
                <path d="M132.85,66.31L95.29,66.17C88.26,66.14 82.6,71.27 80.59,77.68C79.36,81.59 79.59,85.48 80.79,89.41C84.97,103.1 95.42,118.73 109.53,123.77C116.9,126.4 126.03,120.09 130.94,115.14C138.83,107.17 144.83,97.4 147.18,86.36C149.22,76.75 142.82,66.34 132.85,66.31ZM115.1,103.04C111.78,103.53 108.63,103.21 105.28,103.31C104.31,103.33 103.22,102.45 103.2,101.4C103.14,96.98 102.9,92.68 103.12,88.09C103.19,86.72 104.74,86.29 105.51,86.34C106.29,86.39 107.96,86.56 107.99,87.73L108.31,98.08C110.55,98.31 112.9,98.37 115.1,97.81C119.13,96.79 121.16,92.83 120.57,88.85C120.03,85.15 116.52,82.43 112.43,82.44L105.27,82.44C103.82,82.46 102.99,81.01 103.01,79.81C103.04,78.47 104.14,77.27 105.74,77.27L112.95,77.27C118.54,77.29 123.91,80.82 125.46,86.27C127.67,93.98 122.92,101.88 115.1,103.04Z" style="fill:rgb(33,150,243);fill-rule:nonzero;"/>
                <path d="M61.06,86.95C64.94,85.8 68.96,88.42 69.84,91.86C70.78,95.55 68.61,99.31 64.98,100.41C61.35,101.51 57.56,99.39 56.27,95.6C55.18,92.41 57.1,88.12 61.06,86.95Z" style="fill:rgb(33,150,243);fill-rule:nonzero;"/>
                <path d="M78.36,110.06C79.08,112.85 77.68,115.27 76.08,116.72C74.11,118.51 71.56,119.19 69.08,118.15C66.17,116.93 64.2,114.16 64.37,111.17C64.54,108.18 66.76,105.39 70.1,104.68C73.44,103.97 77.4,106.36 78.35,110.05L78.36,110.06Z" style="fill:rgb(33,150,243);fill-rule:nonzero;"/>
                <path d="M162.43,113.17C161.56,116.31 158.8,118.32 156.36,118.55C153.15,118.85 150.5,117.08 149.28,114.63C147.85,111.75 148.51,108.3 150.97,106.26C153.43,104.22 156.43,104.07 159.2,105.69C161.41,106.97 163.33,109.96 162.43,113.18L162.43,113.17Z" style="fill:rgb(33,150,243);fill-rule:nonzero;"/>
                <path d="M66.77,67.98C70.76,67 74.46,69.74 75.26,73.18C76.13,76.94 73.68,80.59 69.95,81.55C66.46,82.45 62.68,80.13 61.71,76.7C60.67,73.02 62.65,68.99 66.77,67.98Z" style="fill:rgb(33,150,243);fill-rule:nonzero;"/>
                <path d="M157.13,68.04C160.92,66.89 164.84,69.38 165.8,72.91C166.76,76.44 164.71,80.44 160.74,81.51C157.45,82.4 153.67,80.45 152.39,76.87C151.18,73.51 152.97,69.3 157.14,68.03L157.13,68.04Z" style="fill:rgb(33,150,243);fill-rule:nonzero;"/>
                <path d="M158.38,97.54C156.57,95.24 156.65,92.26 158.14,89.93C159.4,87.95 161.92,86.48 164.64,86.75C168.08,87.09 170.46,89.54 171.04,92.54C171.62,95.54 169.58,98.68 167.15,99.91C163.95,101.53 160.6,100.36 158.38,97.53L158.38,97.54Z" style="fill:rgb(33,150,243);fill-rule:nonzero;"/>
                <path d="M119.72,9.12C117.96,12.54 114.2,14.08 111.15,12.65C108.1,11.22 106.24,7.75 107.43,4.48C108.62,1.21 112.06,-0.74 115.57,0.28C119.36,1.38 121.62,5.42 119.71,9.13L119.72,9.12Z" style="fill:rgb(33,150,243);fill-rule:nonzero;"/>
                <path d="M153.24,34.4C153.02,29.82 149.32,26.56 144.61,26.89C142.48,20.86 137.05,16.55 130.47,16.56L96.72,16.59C90.16,16.59 84.89,21.01 82.63,26.93C78.41,26.51 74.95,29.17 74.23,33.21C73.68,36.24 73.7,39.63 74.29,42.65C75.09,46.72 78.66,49.06 82.58,48.91C84.95,54.78 90.36,58.98 96.8,58.99L129.78,59.04C136.74,59.06 142.22,54.8 144.8,48.81C149.47,48.75 153.18,45.3 153.28,40.63C153.32,38.52 153.34,36.48 153.24,34.4ZM100.77,38.77C98.55,39.68 96.11,38.52 95.17,36.6C94.03,34.29 95.01,31.39 97.68,30.38C100.28,29.4 102.63,30.93 103.46,33.12C104.31,35.37 102.95,37.87 100.77,38.77ZM114.07,50.56C110.73,50.68 107.22,48.93 105.97,45.19C111.12,44.55 115.98,44.9 121.15,45.07C120.6,48.54 117.19,50.45 114.07,50.56ZM129.97,38.54C127.69,39.54 125.19,38.52 124.21,36.2C123.37,34.18 124.14,31.41 126.68,30.37C129.27,29.3 131.66,30.86 132.52,33.1C133.34,35.25 132.03,37.63 129.97,38.54Z" style="fill:rgb(33,150,243);fill-rule:nonzero;"/>
            </g>
        </g>
    </g>
</svg>
